<svg id="Layer_2" data-name="Layer 2" xmlns="http://www.w3.org/2000/svg" xmlns:xlink="http://www.w3.org/1999/xlink" viewBox="0 0 400 300" width="406" height="306" class="illustration styles_illustrationTablet__1DWOa"><defs><linearGradient id="linear-gradient" x1="139.49" y1="236.74" x2="182.46" y2="196.32" gradientUnits="userSpaceOnUse"><stop offset="0" stop-opacity="0"></stop><stop offset="0.99" stop-color="#552800"></stop></linearGradient><linearGradient id="linear-gradient-2" x1="296.28" y1="206.5" x2="329.14" y2="175.6" xlink:href="#linear-gradient"></linearGradient></defs><title>PP</title><path d="M193.54,285.63,21,183.68c-5.49-3.08-10.2-8.15-4.85-11.46L189.32,72.44c2.6-1.61,6.54-2.66,9.18-1.13L379.57,176.4c5.49,3.19,6.48,12.1,1,15.29L216.28,285.46A22.94,22.94,0,0,1,193.54,285.63Z" fill="#55823d"></path><path d="M127,238.57c4.68,1.43,9.36,2.84,14.16,3.8a72.49,72.49,0,0,0,8.87,1l30.73,28,42.73-45.7-60.37-20.07L82.85,216.5C90.56,222.15,118,235.8,127,238.57Z" opacity="0.32" fill="url(#linear-gradient)"></path><path d="M154,213.5s2.68,19.36,39.76,19.36c45,0,43.71-26.58,43.71-26.58" fill="#68e1fd"></path><path d="M154,213.5s2.68,19.36,39.76,19.36c45,0,43.71-26.58,43.71-26.58" fill="#093e3e" opacity="0.68"></path><path d="M112.48,143.13s4.32,83.08,85,81.34c74.46-1.61,78.45-81.34,78.45-81.34Z" fill="#68e1fd"></path><path d="M190.42,217.84c-8.76-5.43-16.23-13.34-22.18-21.7-11.05-15.51-16.58-34-17.32-52.91H112.48s4.32,83.08,85,81.34c2.73-.06,5.36-.24,7.9-.5A52.31,52.31,0,0,1,190.42,217.84Z" fill="#093e3e" opacity="0.29"></path><ellipse cx="194.18" cy="143.72" rx="81.7" ry="48.04" fill="#ffa87d" stroke="#ddd" stroke-miterlimit="10"></ellipse><path d="M194.18,116.32c37.6,0,68.92,15.19,75.91,35.32a25.8,25.8,0,0,0,1.47-8.5c0-24.2-34.64-43.82-77.38-43.82s-77.38,19.62-77.38,43.82a25.8,25.8,0,0,0,1.47,8.5C125.27,131.51,156.59,116.32,194.18,116.32Z" fill="#68e1fd"></path><path d="M219.33,184.58q-4.24.83-8.7,1.38C213.69,186.65,216.68,186.69,219.33,184.58Z" fill="none"></path><path d="M245.76,175.79q-1.35.68-2.76,1.33a4.51,4.51,0,0,0,1.35-.33A4.13,4.13,0,0,0,245.76,175.79Z" fill="none"></path><path d="M140.22,165c6.22-.24,10.66,4.66,16.52,5.5,6.75,1,9-7.52,11.91-12,2.64-4.07,6.47-7.62,11.61-7.52,5.41.11,14.42,8.85,19,5.06,2.05-1.69,2.48-5.44,3.72-7.73a14.42,14.42,0,0,1,4.3-4.9c4.86-3.51,10.34-2.94,15.75-1.18,2.93,1,7.15,2.82,10.17,1.12s2.64-6.38,3.62-9.16a15.84,15.84,0,0,1,6.23-8q-3-1.4-6.32-2.63a13.09,13.09,0,0,1-3.26,4.28c-5.34,4.54-12,2.23-17.67-.11-3.66-1.5-8.48-3.38-11.56.16-1.46,1.67-2.27,3.85-3.33,5.77-2.13,3.85-5.16,7.18-9.88,7.23-5.27.06-9-4.56-14-5-6.77-.56-8.45,9.77-12.46,13.61a14.1,14.1,0,0,1-13.75,3c-2.43-.76-4.21-2.37-6.15-3.92-3.73-3-8.34-2.31-10,2.47-1.8,5.12-2.64,9.53-7.9,12.24-.29.15-.58.26-.87.38a50.44,50.44,0,0,0,6,5.34A12,12,0,0,1,140.22,165Z" fill="#fed337"></path><path d="M127.15,155.66c1.87-2.78,1.69-6.55,3.47-9.45a11.51,11.51,0,0,1,13.8-4.48c3,1.22,4.92,4.24,8,5.32,4.25,1.5,8-.68,10.19-4.21,3.24-5.09,5.3-11.78,12.23-12.63a13.25,13.25,0,0,1,6.7,1.15c2.84,1.16,6.37,4,9.56,3.79,5.1-.4,6.39-8.68,9.59-11.85,4.83-4.79,11.34-3.26,17-1,3.83,1.53,9.07,4.29,12.67.7a7.31,7.31,0,0,0,1-1.3,123.16,123.16,0,0,0-30.16-5.2c-2.26,3.43-5.2,6.25-9.47,7.47a16.52,16.52,0,0,1-9.57-.18c-3.56-1.17-7.15-5.42-11.09-4.62-4.44.91-7.05,6.39-10,9.3a20.38,20.38,0,0,1-8,4.83,21.27,21.27,0,0,1-17.24-1.89c-8.68,5.66-14.84,12.58-17.49,20.22a31.05,31.05,0,0,0,3.79,7.39A8.07,8.07,0,0,0,127.15,155.66Z" fill="#fed337"></path><path d="M193.63,116.33c-4.37,0-8.66.24-12.82.65a21.67,21.67,0,0,0,2.83,1.28A9.34,9.34,0,0,0,193.63,116.33Z" fill="#fed337"></path><path d="M230,182q1.36-.4,2.68-.84a7.4,7.4,0,0,0-1,.17A7.65,7.65,0,0,0,230,182Z" fill="#fed337"></path><path d="M154.9,126.12a26.54,26.54,0,0,0,5.4-5.37,94.78,94.78,0,0,0-18.38,7.09A15.06,15.06,0,0,0,154.9,126.12Z" fill="#fed337"></path><path d="M178.22,169.68c4.14-3.39,9.3-4.85,14.44-3,5.36,2,13.59,11.45,18.05,3.69,2.72-4.72,3.34-9.73,9.16-11.77,6.44-2.26,10.45,2.33,16.36,3.44,7.77,1.46,10-8.61,14.1-13.22a21.4,21.4,0,0,1,14.06-7.11,54.39,54.39,0,0,0-15.05-12.31,9.94,9.94,0,0,0-3.1,1.43c-3.41,2.34-4.09,5.73-4.94,9.44-1.33,5.86-5.26,9.5-11.41,9.38-7.33-.14-16.29-7.42-21.65,1-3.13,4.91-3.3,11.27-10.45,12-3.2.34-6.28-.81-9.08-2.25-3.7-1.9-7.64-5.23-11.85-2.69-5.56,3.35-6.49,11.88-11.64,16-4.57,3.65-9.93,2.86-14.93.59-2.79-1.27-5.78-3.41-8.91-3.58a6.54,6.54,0,0,0-4.76,1.67,93.19,93.19,0,0,0,29.21,11.5C171.08,181.35,173.75,173.34,178.22,169.68Z" fill="#fed337"></path><path d="M257.08,150.41c-5.07,3.72-6.44,10.29-11,14.44a12.08,12.08,0,0,1-12.64,2.31c-2.9-1-5.62-3-8.71-3.36-4.24-.48-6.05,2.43-7.51,5.89-1.84,4.34-3.78,8.53-8.91,9.44-5.36,1-9.81-2.46-14-5.13-10.89-6.87-15,4.22-21.37,11.26a130.94,130.94,0,0,0,13.54,1.47,19.84,19.84,0,0,1,16.76-3c2.44.62,5,1.62,7.47,2.18q4.45-.55,8.7-1.38a9.86,9.86,0,0,0,.93-.84c3.22-3.31,5.16-6.69,10-8a14.46,14.46,0,0,1,6.36-.18c2.24.42,4.27,1.72,6.41,1.53q1.41-.65,2.76-1.33c1.32-1.38,1.87-3.55,3.07-5.24a19.55,19.55,0,0,1,3.81-4,20.78,20.78,0,0,1,11.25-4.44,33,33,0,0,0,6.21-10.52,29.48,29.48,0,0,0-1.91-4.29A16.12,16.12,0,0,0,257.08,150.41Z" fill="#fed337"></path><path d="M134.69,151.14c1.68-4.79,6.29-5.44,10-2.47,1.95,1.55,3.72,3.15,6.15,3.92a14.1,14.1,0,0,0,13.75-3c4-3.85,5.69-14.17,12.46-13.61,5,.41,8.73,5,14,5,4.72-.06,7.75-3.38,9.88-7.23,1.06-1.92,1.87-4.1,3.33-5.77,3.08-3.53,7.9-1.65,11.56-.16,5.72,2.34,12.33,4.65,17.67.11a13.09,13.09,0,0,0,3.26-4.28q-2.66-1-5.46-1.86a7.31,7.31,0,0,1-1,1.3c-3.6,3.59-8.84.83-12.67-.7-5.63-2.25-12.14-3.78-17,1-3.19,3.17-4.49,11.44-9.59,11.85-3.19.25-6.71-2.63-9.56-3.79a13.25,13.25,0,0,0-6.7-1.15c-6.93.85-9,7.54-12.23,12.63-2.24,3.53-5.95,5.71-10.19,4.21-3-1.08-4.94-4.1-8-5.32a11.51,11.51,0,0,0-13.8,4.48c-1.78,2.9-1.6,6.66-3.47,9.45a8.07,8.07,0,0,1-5.08,3.36,39.65,39.65,0,0,0,3.86,4.74c.29-.13.58-.24.87-.38C132.05,160.67,132.89,156.25,134.69,151.14Z" fill="#f4b322"></path><path d="M150.31,174.32c5,2.28,10.37,3.06,14.93-.59,5.15-4.11,6.07-12.63,11.64-16,4.21-2.54,8.14.79,11.85,2.69,2.8,1.43,5.88,2.59,9.08,2.25,7.15-.76,7.32-7.12,10.45-12,5.36-8.4,14.31-1.12,21.65-1,6.15.12,10.08-3.52,11.41-9.38.84-3.72,1.52-7.1,4.94-9.44a9.94,9.94,0,0,1,3.1-1.43q-3-1.71-6.26-3.24a15.84,15.84,0,0,0-6.23,8c-1,2.78-.68,7.52-3.62,9.16s-7.24-.17-10.17-1.12c-5.41-1.76-10.89-2.34-15.75,1.18a14.42,14.42,0,0,0-4.3,4.9c-1.23,2.29-1.67,6-3.72,7.73-4.61,3.79-13.62-5-19-5.06-5.15-.1-9,3.45-11.61,7.52-2.9,4.46-5.16,13-11.91,12-5.86-.84-10.31-5.74-16.52-5.5a12,12,0,0,0-8.34,4.11q2.24,1.72,4.77,3.31a6.54,6.54,0,0,1,4.76-1.67C144.53,170.91,147.53,173.06,150.31,174.32Z" fill="#f4b322"></path><path d="M250.33,148.84c-4.13,4.61-6.33,14.68-14.1,13.22-5.91-1.11-9.92-5.7-16.36-3.44-5.82,2-6.44,7-9.16,11.77-4.47,7.76-12.69-1.73-18.05-3.69-5.14-1.88-10.3-.41-14.44,3-4.47,3.66-7.14,11.68-12.36,14.24q3.42.76,7,1.35c6.38-7,10.48-18.13,21.37-11.26,4.24,2.67,8.68,6.09,14,5.13,5.14-.92,7.08-5.1,8.91-9.44,1.46-3.45,3.27-6.37,7.51-5.89,3.1.35,5.81,2.34,8.71,3.36a12.08,12.08,0,0,0,12.64-2.31c4.59-4.15,6-10.72,11-14.44a16.12,16.12,0,0,1,11.11-3.06,35.31,35.31,0,0,0-3.8-5.62A21.4,21.4,0,0,0,250.33,148.84Z" fill="#f4b322"></path><path d="M153,133.3a20.38,20.38,0,0,0,8-4.83c3-2.91,5.59-8.39,10-9.3,3.93-.81,7.53,3.44,11.09,4.62a16.52,16.52,0,0,0,9.57.18c4.27-1.21,7.21-4,9.47-7.47q-3.44-.17-7-.18h-.56a9.34,9.34,0,0,1-10,1.93A21.67,21.67,0,0,1,180.8,117a122.17,122.17,0,0,0-20.5,3.77,26.54,26.54,0,0,1-5.4,5.37,15.06,15.06,0,0,1-13,1.72q-3.25,1.69-6.15,3.58A21.27,21.27,0,0,0,153,133.3Z" fill="#f4b322"></path><path d="M248.83,170.55c-1.21,1.68-1.76,3.85-3.07,5.24a58.3,58.3,0,0,0,18.13-13.63,20.78,20.78,0,0,0-11.25,4.44A19.55,19.55,0,0,0,248.83,170.55Z" fill="#f4b322"></path><path d="M210.64,186c-2.5-.57-5-1.56-7.47-2.18a19.84,19.84,0,0,0-16.76,3c2.56.14,5.15.23,7.78.23A135.2,135.2,0,0,0,210.64,186Z" fill="#f4b322"></path><path d="M236.59,175.6a14.46,14.46,0,0,0-6.36.18c-4.8,1.27-6.74,4.65-10,8a9.86,9.86,0,0,1-.93.84c3.7-.72,7.28-1.59,10.7-2.6a7.65,7.65,0,0,1,1.72-.67,7.4,7.4,0,0,1,1-.17,94.38,94.38,0,0,0,10.28-4C240.86,177.32,238.83,176,236.59,175.6Z" fill="#f4b322"></path><path d="M195.66,26.27s-3.51,2.53-2.78,4,3.37,2.41,3.37,2.41,135.65,21,137.16,20A10.06,10.06,0,0,0,336,49l-4.45-4.86Z" fill="#994f31"></path><path d="M200.68,36.8s-3.85,2-3.32,3.57,3,2.82,3,2.82S333,82.35,334.64,81.49a10,10,0,0,0,3.06-3.29l-3.77-5.38Z" fill="#994f31"></path><path d="M202.44,122.56c-1.83-9.79-12.82-16.14-10.56-26.83C194,85.59,201.77,77.4,201,66.52c-.39-5.77-3.26-10.79-5.58-16-2.14-4.76-4.09-11.51.75-15.28,3.89-3-1.17-8.77-5-5.75-10.22,8-3.95,20.78.11,30.13,2.94,6.77,2.26,12.26-.61,18.89-2.24,5.17-5.09,10.11-6.25,15.68a21.78,21.78,0,0,0,2,14.78c2.44,4.73,6.78,8.79,8.26,14,1.86,6.56-4.59,11.4-7.45,16.56-2.61,4.71-3.64,10.17-.87,15,2.43,4.26,9.29.87,6.85-3.42-3.19-5.6,3.36-11.22,6.13-15.56C201.83,131.65,203.32,127.26,202.44,122.56Z" fill="#f4b322"></path><path d="M214,121.11c-1.54-9.33-14.39-14-11.07-24.11,1.85-5.63,5.55-10.44,7.19-16.19,1.46-5.11,1.75-10.44-.13-15.48s-5.53-8.92-7.87-13.65c-3.06-6.2-1.28-12.45,2.38-17.95,2.74-4.1-3.6-8.39-6.34-4.29-3.3,5-5.58,10.6-5.33,16.64.24,5.8,3.14,10.42,6.21,15.14,3.79,5.8,5.75,10.94,3.59,17.86-2,6.36-6.42,11.78-7.75,18.35a16.47,16.47,0,0,0,3.29,13.46c2.65,3.6,7.75,7.06,8.32,11.77.74,6-5.88,11.62-8.32,16.69-2.31,4.79-3.06,9.89-.52,14.74,2.28,4.36,9.14,1,6.85-3.42-2.87-5.48,2.52-11.1,5.34-15.43S214.85,126.24,214,121.11Z" fill="#fed337"></path><path d="M221.91,68.28c-3-11-20.58-19.63-13.24-32.71,2.4-4.27-3.93-8.58-6.34-4.29-3.55,6.34-3.49,13.37-.63,20A43.91,43.91,0,0,0,208,61.06c2.1,2.61,5.11,5.2,6.28,8.41,2.9,8-7.53,15.45-9.93,22.43-2,5.93-.77,12,4,16.1,3.73,3.22,8-3.16,4.29-6.34-5.48-4.73,2.67-13.3,5.3-17.19C221.13,79.71,223.47,74.08,221.91,68.28Z" fill="#f4b322"></path><path d="M172.76,124.39c-.18-5.56,5.09-7.48,6.71-12.15,2-5.73-6.17-9.27-7.73-14.23a12,12,0,0,1-.28-7.05c-2.18,2.68-4.19,5.65-2.84,9.21,1.51,4,9,6.57,4.84,11.55-2.39,2.84-5.35,4.91-5.19,9a9.64,9.64,0,0,0,6,8.35c.09,0,.19.06.28.09A8,8,0,0,1,172.76,124.39Z" fill="#fff"></path><ellipse cx="153.99" cy="145.96" rx="26.15" ry="15.09" fill="#ccbdb8"></ellipse><ellipse cx="153.99" cy="141.48" rx="26.15" ry="15.09" fill="#f0f0f0"></ellipse><ellipse cx="157.43" cy="143.02" rx="18.09" ry="8.99" fill="#f4b322"></ellipse><ellipse cx="163.39" cy="141.45" rx="5.95" ry="3.43" fill="#fff2d4"></ellipse><ellipse cx="163.39" cy="163.35" rx="26.15" ry="15.09" fill="#ccbdb8"></ellipse><ellipse cx="163.39" cy="158.87" rx="26.15" ry="15.09" fill="#f0f0f0"></ellipse><ellipse cx="166.83" cy="160.4" rx="18.09" ry="8.99" fill="#f4b322"></ellipse><ellipse cx="172.78" cy="158.83" rx="5.95" ry="3.43" fill="#fff2d4"></ellipse><path d="M240,142.68l-.85-2.39s3.85-.63,8.35,3.56l.14,2.08S242.32,141.81,240,142.68Z" fill="#55823d"></path><path d="M219.33,177.12s-1-5.44,4.55-5.44,4.92,4.57,4.92,4.57l1.23-4.91a7.34,7.34,0,0,0-7.77-2.89c-5.08,1.24-5.24,6.88-5.24,6.88Z" fill="#55823d"></path><path d="M219.33,177.12s4.93,4.1,9.47-.88c0,0-.12,4.8-4.54,5s-7.24-5.89-7.24-5.89" fill="#55823d"></path><path d="M218.61,139.3s6.37,2.3,2,8.24L225,150s1.91-6.32-1.43-9.75S218.61,139.3,218.61,139.3Z" fill="#55823d"></path><path d="M248.18,166.64s-6.57-1.64-2.82-8l-4.58-2s-1.26,6.48,2.42,9.55S248.18,166.64,248.18,166.64Z" fill="#55823d"></path><path d="M188.49,172.69s6.75-.61,5.29,6.62l5,.4s-.94-6.53-5.42-8.22S188.49,172.69,188.49,172.69Z" fill="#55823d"></path><path d="M182.54,130.88s-6.57-1.64-2.82-8l-4.58-2s-1.26,6.48,2.42,9.55S182.54,130.88,182.54,130.88Z" fill="#55823d"></path><path d="M232.58,128.76s-5.12,4.43-8.16-2.29l-4.28,2.59s4.57,4.76,9.2,3.52S232.58,128.76,232.58,128.76Z" fill="#55823d"></path><path d="M236.92,150a1.58,1.58,0,0,0,0,3.15A1.58,1.58,0,0,0,236.92,150Z" fill="#b25636"></path><path d="M229.72,136.29a1.58,1.58,0,0,0,0,3.15A1.58,1.58,0,0,0,229.72,136.29Z" fill="#b25636"></path><path d="M208.48,164a1.58,1.58,0,0,0,0,3.15A1.58,1.58,0,0,0,208.48,164Z" fill="#b25636"></path><path d="M187.24,138.45a1.58,1.58,0,0,0,0,3.15A1.58,1.58,0,0,0,187.24,138.45Z" fill="#b25636"></path><path d="M252.76,151a1.58,1.58,0,0,0,0,3.15A1.58,1.58,0,0,0,252.76,151Z" fill="#b25636"></path><path d="M185.44,181.65a1.58,1.58,0,0,0,0,3.15A1.58,1.58,0,0,0,185.44,181.65Z" fill="#b25636"></path><path d="M207.76,182a1.58,1.58,0,0,0,0,3.15A1.58,1.58,0,0,0,207.76,182Z" fill="#b25636"></path><path d="M217.48,123.33a1.58,1.58,0,0,0,0,3.15A1.58,1.58,0,0,0,217.48,123.33Z" fill="#b25636"></path><path d="M248.44,136.65a1.58,1.58,0,0,0,0,3.15A1.58,1.58,0,0,0,248.44,136.65Z" fill="#b25636"></path><path d="M254.56,157.17a1.58,1.58,0,0,0,0,3.15A1.58,1.58,0,0,0,254.56,157.17Z" fill="#b25636"></path><path d="M134.54,173.06a1.31,1.31,0,0,0,0,2.62A1.31,1.31,0,0,0,134.54,173.06Z" fill="#b25636"></path><path d="M165.64,122.61a1.58,1.58,0,0,0,0,3.15A1.58,1.58,0,0,0,165.64,122.61Z" fill="#b25636"></path><path d="M289.7,213.36c4.68,1.43,9.36,2.84,14.16,3.8a72.49,72.49,0,0,0,8.87,1l5-3.38,34.48-25.64-26.37-8.77-62.38,21.74C271.14,207.8,280.67,210.59,289.7,213.36Z" opacity="0.32" fill="url(#linear-gradient-2)"></path><path d="M338.41,161.28c-6.22-.54-12.77-2.42-17.37-6.68V173a19.14,19.14,0,0,0,19.14,19.14h0A19.14,19.14,0,0,0,359.33,173V154.29C352.79,157,345.38,161.88,338.41,161.28Z" fill="#68e1fd"></path><ellipse cx="340.18" cy="154.48" rx="19.14" ry="10.15" fill="#5ed18d"></ellipse><path d="M340.18,156.2s-13-1.91-16.46-23C323.72,133.23,334.82,139.36,340.18,156.2Z" fill="#5ed18d"></path><path d="M342.1,153.52s-14.93-26.8,0-44.79A75.08,75.08,0,0,1,342.1,153.52Z" fill="#5ed18d"></path><path d="M340.18,136.68s-13-1.91-16.46-23C323.72,113.7,334.82,119.83,340.18,136.68Z" fill="#5ed18d"></path><path d="M341.76,145.26s-3.26-12.75,14.83-24.06C356.6,121.2,355.23,133.81,341.76,145.26Z" fill="#5ed18d"></path><ellipse cx="340.18" cy="154.48" rx="19.14" ry="10.15" fill="#146666"></ellipse><path d="M340.18,156.2s-13-1.91-16.46-23C323.72,133.23,334.82,139.36,340.18,156.2Z" fill="#5ed18d"></path><path d="M342.1,153.52s-14.93-26.8,0-44.79A75.08,75.08,0,0,1,342.1,153.52Z" fill="#5ed18d"></path><path d="M340.18,136.68s-13-1.91-16.46-23C323.72,113.7,334.82,119.83,340.18,136.68Z" fill="#5ed18d"></path><path d="M341.76,145.26s-3.26-12.75,14.83-24.06C356.6,121.2,355.23,133.81,341.76,145.26Z" fill="#5ed18d"></path><path d="M234,157c-.21-6.51,6-8.76,7.86-14.23,2.33-6.72-7.23-10.86-9.05-16.67a14,14,0,0,1-.33-8.26c-2.55,3.14-4.91,6.62-3.33,10.79,1.77,4.67,10.58,7.69,5.67,13.53-2.8,3.33-6.27,5.75-6.08,10.58a11.3,11.3,0,0,0,7,9.79c.11,0,.22.07.33.1A9.34,9.34,0,0,1,234,157Z" fill="#fff"></path></svg>